<?xml version="1.0"?>
<svg width="848.78168" height="358.8623" xmlns="http://www.w3.org/2000/svg" xmlns:svg="http://www.w3.org/2000/svg" version="1.1">
 <defs id="defs3866">
  <clipPath id="clipPath72">
   <path d="m-62.4,362.66l543.66,0l0,312.94l-543.66,0l0,-312.94z" id="path74"/>
  </clipPath>
 </defs>
 <metadata id="metadata3869">image/svg+xml</metadata>
 <g class="layer">
  <title>Layer 1</title>
  <g id="layer1">
   <g id="g3683" transform="matrix(1.22683, 0, 0, -1.25, -161.132, 889.157)">
    <g id="g3215" transform="translate(-307.948, -183.775)">
     <path d="m447.74,635.71c-2.39,0.78 -4.35,2.31 -5.88,4.56c-1.54,2.25 -2.31,4.71 -2.31,7.43l0,27.97c21.84,-4.28 43.69,-8.55 65.53,-12.82l0,45.83c-16.38,1.08 -32.76,2.14 -49.15,3.21c-4.6,0.3 -8.7,2.41 -11.77,6.1c-3.09,3.71 -4.61,8.37 -4.61,13.62l0,74.58c0,5.05 1.52,9.91 4.61,14.52c3.16,4.73 7.17,7.96 11.77,9.47c24.58,8.01 49.15,16.02 73.72,24.04c2.22,0.72 4.07,-0.18 5.63,-2.06c1.49,-1.77 2.56,-5.9 2.56,-9.24l0,-37.11c-22.03,-2.56 -43.76,-7.6 -65.52,-11.86l0,-41.56c16.38,1.07 32.76,2.14 49.14,3.2c4.44,0.29 8.28,-1.85 11.52,-6.59c3.24,-4.74 4.86,-10.7 4.86,-17.39c0,-32.98 0,-65.97 0,-98.95c0,-6.95 -1.61,-14.02 -4.86,-17.79c-3.13,-3.63 -7.08,-4.65 -11.52,-3.2c-24.57,8.01 -49.14,16.03 -73.72,24.04" fill="#000000" fill-rule="nonzero" id="path3167"/>
     <path d="m541.12,609l0,12.26c3.28,0.96 4.91,1.44 8.19,2.4c0.01,71.96 0,143.93 0,215.89c-3.28,0.96 -4.91,1.44 -8.19,2.4l0,12.27c27.3,-8.91 54.61,-17.81 81.91,-26.71c2.21,-0.73 4.06,-2.49 5.63,-4.78c1.55,-2.27 2.56,-4.7 2.56,-7.22l0,-177.13c-10.92,-3.57 -21.84,-7.13 -32.76,-10.69l0,176.66c0,2.81 -1.02,5.42 -2.56,7.78c-1.57,2.4 -3.42,4.17 -5.63,4.74c-2.39,0.63 -4.35,-0.09 -5.89,-1.85c-1.44,-1.64 -2.3,-3.98 -2.3,-6.94l0,-185.73c-13.66,-4.45 -27.31,-8.9 -40.96,-13.35" fill="#000000" fill-rule="nonzero" id="path3169"/>
     <path d="m539.39,895.55l18.64,-5.66l0,-30.84l0,0.87l-18.64,5.66l-18.65,-5.66l0,-0.87l0,30.84l18.65,5.66z" fill="#000000" fill-rule="nonzero" id="path3171"/>
     <g id="g3173" transform="translate(601.787, 785.955)">
      <path d="m-62.4,109.6l18.65,-5.66l0,-30.84l0,0.87l-18.65,5.66l-18.65,-5.66l0,-0.87l0,30.84l18.65,5.66z" fill="#000000" id="path3175" stroke="#fff" stroke-miterlimit="10"/>
     </g>
    </g>
    <g fill="#fff" id="g68" transform="translate(402.675, 28.6314)">
     <g clip-path="url(#clipPath72)" fill="#fff" id="g70">
      <g fill="#fff" id="g76" transform="translate(4, 419.598)">
       <text fill="#000000" id="text78" transform="translate(-64.8, 111.2) scale(1, -1)" x="2.4" y="1.6">
        <tspan fill="#000000" fill-rule="nonzero" font-family="Liberation Sans" font-size="120px" font-weight="bold" id="tspan80" x="2.4" y="1.6">TARDIS</tspan>
       </text>
      </g>
      <g fill="#fff" id="g82" transform="translate(4, 419.598)">
       <text fill="#000000" id="text84" transform="matrix(1, 0, 0, -1, 437.82, 0)" x="-62.4" y="-109.6">
        <tspan fill="#000000" fill-rule="nonzero" font-family="Liberation Sans" font-size="120px" font-weight="bold" id="tspan86" x="-62.4" y="-109.6">!</tspan>
       </text>
      </g>
      <g fill="#fff" id="g88" transform="translate(4, 363.669)">
       <text fill="#000000" id="text90" transform="translate(-64.8, 111.2) scale(1, -1)" x="2.4" y="1.6">
        <tspan fill="#000000" fill-rule="nonzero" font-family="Liberation Sans" font-size="29px" font-weight="normal" id="tspan92" x="2.4" y="1.6">Exploring supernovae made easy</tspan>
       </text>
      </g>
     </g>
    </g>
   </g>
  </g>
 </g>
</svg>